<svg viewBox="0 0 841 369" version="1.1" xmlns="http://www.w3.org/2000/svg" xmlns:xlink="http://www.w3.org/1999/xlink" xml:space="preserve" xmlns:serif="http://www.serif.com/" style="fill-rule:evenodd;clip-rule:evenodd;stroke-linejoin:round;stroke-miterlimit:2;" fill="currentColor">
    <g transform="matrix(1,0,0,1,-252.844948,-102.579977)">
        <g id="Layer1">
            <g>
                <g transform="matrix(0.720897,0,0,0.720897,-7.036808,-70.84855)">
                    <path d="M421.003,689.73C477.831,689.73 510.015,651.109 510.015,588.58C510.015,514.833 468.268,486.328 423.578,486.328C413.463,486.328 403.716,487.247 387.9,487.431L360.498,487.431L362.704,492.397C375.394,493.132 383.118,498.466 383.118,511.339L383.118,665.822C383.118,678.695 375.394,684.029 362.704,684.58L360.498,689.73L421.003,689.73ZM419.716,681.086C413.463,681.086 405.187,679.799 405.187,670.419L405.187,496.259C409.233,495.155 412.36,494.971 418.245,494.971C457.601,494.971 486.291,524.581 486.291,588.58C486.291,639.339 467.716,681.086 419.716,681.086Z" style="fill-rule:nonzero;"/>
                    <path d="M597.647,636.948C594.153,662.511 581.647,678.695 566.934,678.695C550.934,678.695 538.98,663.983 534.934,635.845C534.199,626.833 536.038,623.155 543.21,620.213L594.521,599.615C599.854,597.592 602.612,595.937 602.612,590.603C602.612,561.73 587.164,543.523 564.544,543.523C531.44,543.523 512.314,574.603 512.314,619.477C512.314,665.638 533.095,692.488 559.026,692.488C583.486,692.488 598.75,671.707 603.348,636.948L597.647,636.948ZM563.44,551.431C575.946,551.431 581.831,566.512 581.831,581.04C581.831,593.178 574.842,598.144 533.463,616.167L533.463,613.04C533.463,574.971 542.842,551.431 563.44,551.431Z" style="fill-rule:nonzero;"/>
                    <path d="M653.187,692.488C668.819,692.488 690.337,681.822 690.337,654.419C690.337,633.454 676.36,618.557 655.394,606.052C636.084,594.098 624.681,583.431 624.681,570.374C624.681,559.707 633.509,551.247 645.279,551.247C664.957,551.247 674.888,565.592 682.796,592.81L687.762,594.098L681.693,544.443L677.831,544.443C676.911,549.96 675.624,550.512 673.601,550.512C668.635,550.512 661.279,543.523 646.199,543.523C623.946,543.523 607.21,557.316 607.21,578.098C607.21,597.408 619.348,608.443 645.279,625.546C662.015,636.58 672.498,647.063 672.498,662.144C672.498,676.305 663.67,684.58 651.716,684.58C630.199,684.58 619.716,663.615 609.601,635.845L604.636,634.557L616.038,691.569L620.268,691.569C620.452,687.155 622.107,685.316 624.13,685.316C629.831,685.316 637.187,692.488 653.187,692.488Z" style="fill-rule:nonzero;"/>
                    <path d="M713.049,514.833C721.693,514.833 728.13,508.213 728.13,499.385C728.13,490.925 721.693,484.672 713.049,484.672C704.222,484.672 697.785,490.925 697.785,499.385C697.785,508.213 704.406,514.833 713.049,514.833ZM686.934,689.73L741.739,689.73L739.532,684.58C730.153,684.029 724.452,680.167 724.452,671.339L724.452,543.523L718.934,543.523C714.704,553.822 705.141,558.236 686.75,558.236L689.325,563.201C700.911,564.489 704.222,568.351 704.222,576.81L704.222,671.339C704.222,680.167 698.521,684.029 689.141,684.58L686.934,689.73Z" style="fill-rule:nonzero;"/>
                    <path d="M818.521,672.81L777.141,672.81C769.969,672.81 767.946,670.419 770.521,664.167L775.67,653.132C779.164,654.052 783.026,654.603 787.256,654.603C811.9,654.603 831.762,634.741 831.762,597.776C831.762,577.546 824.773,560.075 811.348,550.695C819.072,550.879 827.164,550.879 833.601,549.96C839.67,549.04 840.957,541.316 842.061,516.305L837.279,518.328C832.681,537.822 823.118,543.523 791.486,543.707C790.199,543.523 788.727,543.523 787.256,543.523C762.613,543.523 742.567,562.466 742.567,597.776C742.567,621.132 751.394,641.362 767.946,650.19C754.888,677.776 747.9,683.109 735.762,684.396L733.555,689.73C768.13,689.73 805.647,690.098 813.187,691.017C822.934,692.488 827.164,697.086 827.164,705.914C827.164,728.718 807.486,742.144 789.831,742.144C777.877,742.144 768.13,734.419 768.13,722.281C768.13,712.902 771.44,707.385 777.877,702.052L775.302,698.373C762.796,701.684 751.578,711.615 751.578,725.408C751.578,739.937 764.636,751.339 784.865,751.339C814.842,751.339 843.9,725.776 843.9,695.615C843.9,682.741 835.072,672.81 818.521,672.81ZM785.969,551.247C800.498,551.247 810.429,567.983 810.429,604.029C810.429,632.534 802.153,646.511 788.911,646.511C774.015,646.511 763.9,629.224 763.9,591.339C763.9,564.672 772.544,551.247 785.969,551.247Z" style="fill-rule:nonzero;"/>
                    <path d="M958.199,684.58C948.819,684.029 943.118,680.167 943.118,671.339L943.118,578.098C943.118,556.397 932.084,543.523 914.061,543.523C898.796,543.523 883.9,555.109 875.256,571.845L875.256,543.523L869.739,543.523C865.509,553.822 855.946,558.236 837.555,558.236L840.13,563.201C851.716,564.489 855.026,568.351 855.026,576.81L855.026,671.339C855.026,680.167 849.325,684.029 839.946,684.58L837.739,689.73L892.544,689.73L890.337,684.58C880.957,684.029 875.256,680.167 875.256,671.339L875.256,597.592C875.256,576.626 889.969,558.052 906.153,558.052C917.923,558.052 922.888,565.776 922.888,583.247L922.888,671.339C922.888,680.167 917.187,684.029 907.808,684.58L905.601,689.73L960.406,689.73L958.199,684.58Z" style="fill-rule:nonzero;"/>
                    <path d="M1049.785,692.488C1078.475,692.488 1097.049,673.362 1097.049,643.569C1097.049,615.983 1082.153,595.937 1046.475,573.5C1018.888,556.213 1006.934,540.397 1006.934,521.27C1006.934,504.902 1018.888,493.132 1035.808,493.132C1059.9,493.132 1077.371,510.971 1087.486,555.845L1092.819,557.316L1085.463,485.592L1080.865,485.592C1080.314,493.132 1077.371,494.42 1074.245,494.42C1067.072,494.42 1056.589,484.672 1036.544,484.672C1008.038,484.672 988.544,502.879 988.544,530.649C988.544,559.155 1008.406,576.443 1033.233,592.81C1058.796,609.914 1078.107,625.362 1078.107,651.477C1078.107,670.236 1066.153,683.845 1049.601,683.845C1018.521,683.845 1006.199,654.052 992.222,608.075L986.704,606.603L1001.601,691.569L1006.199,691.569C1007.486,683.661 1009.325,682.557 1013.003,682.557C1019.256,682.557 1030.842,692.488 1049.785,692.488Z" style="fill-rule:nonzero;"/>
                    <path d="M1134.015,692.488C1153.141,692.488 1161.417,674.833 1163.44,640.626L1157.923,640.626C1156.084,665.086 1150.383,678.511 1141.739,678.511C1133.463,678.511 1129.417,670.787 1129.417,655.707L1129.417,567.615C1129.417,558.787 1133.463,554.741 1142.475,554.741L1157.371,554.741L1157.371,546.282L1129.417,546.282L1129.417,491.109L1122.613,491.109C1121.877,529.362 1111.026,548.856 1093.739,548.856L1095.578,554.741L1108.819,554.741L1108.819,659.385C1108.819,681.822 1117.831,692.488 1134.015,692.488Z" style="fill-rule:nonzero;"/>
                    <path d="M1263.578,657.914L1263.578,543.523L1258.061,543.523C1254.015,548.856 1245.739,550.144 1227.716,550.144L1230.658,554.925C1239.302,556.029 1243.348,558.787 1243.348,573.868L1243.348,640.075C1243.348,660.121 1228.635,677.776 1212.635,677.776C1200.681,677.776 1195.532,670.052 1195.532,652.58L1195.532,543.523L1190.015,543.523C1185.969,548.856 1177.693,550.144 1159.67,550.144L1162.613,554.925C1171.256,556.029 1175.302,558.787 1175.302,573.868L1175.302,657.914C1175.302,679.615 1186.337,692.488 1204.544,692.488C1219.808,692.488 1234.704,681.27 1243.348,664.902C1243.348,674.649 1243.716,682.19 1244.268,691.569L1250.704,691.569C1253.463,684.213 1265.785,679.615 1278.107,677.96L1279.394,672.442C1269.095,673.73 1263.578,671.155 1263.578,657.914Z" style="fill-rule:nonzero;"/>
                    <path d="M1369.785,657.914L1369.785,472.718L1364.268,472.718C1360.038,483.017 1350.475,487.431 1332.084,487.431L1334.658,492.397C1346.245,493.684 1349.555,497.546 1349.555,506.006L1349.555,557.868C1341.279,548.489 1331.348,543.523 1320.314,543.523C1293.095,543.523 1273.969,575.707 1273.969,621.5C1273.969,663.983 1290.337,692.488 1314.613,692.488C1328.59,692.488 1342.567,681.086 1349.555,664.718C1349.555,674.465 1349.923,682.006 1350.475,691.569L1356.911,691.569C1359.67,684.213 1371.992,679.615 1384.314,677.96L1385.601,672.442C1375.302,673.73 1369.785,671.155 1369.785,657.914ZM1322.337,679.063C1306.337,679.063 1295.67,655.339 1295.67,617.822C1295.67,578.098 1306.704,551.799 1323.072,551.799C1338.337,551.799 1349.555,570.925 1349.555,596.305L1349.555,637.316C1349.555,658.833 1336.314,679.063 1322.337,679.063Z" style="fill-rule:nonzero;"/>
                    <path d="M1402.429,514.833C1411.072,514.833 1417.509,508.213 1417.509,499.385C1417.509,490.925 1411.072,484.672 1402.429,484.672C1393.601,484.672 1387.164,490.925 1387.164,499.385C1387.164,508.213 1393.785,514.833 1402.429,514.833ZM1376.314,689.73L1431.118,689.73L1428.911,684.58C1419.532,684.029 1413.831,680.167 1413.831,671.339L1413.831,543.523L1408.314,543.523C1404.084,553.822 1394.521,558.236 1376.13,558.236L1378.704,563.201C1390.291,564.489 1393.601,568.351 1393.601,576.81L1393.601,671.339C1393.601,680.167 1387.9,684.029 1378.521,684.58L1376.314,689.73Z" style="fill-rule:nonzero;"/>
                    <path d="M1475.348,692.488C1505.877,692.488 1526.291,662.511 1526.291,618.006C1526.291,573.316 1505.877,543.523 1475.348,543.523C1445.003,543.523 1424.59,573.316 1424.59,618.006C1424.59,662.695 1444.819,692.488 1475.348,692.488ZM1478.658,684.213C1459.532,684.213 1445.739,652.764 1445.739,606.236C1445.739,572.029 1455.67,551.615 1472.038,551.615C1491.716,551.615 1505.141,582.144 1505.141,629.224C1505.141,663.431 1495.026,684.213 1478.658,684.213Z" style="fill-rule:nonzero;"/>
                </g>
                <g transform="matrix(0.720897,0,0,0.720897,-4.384158,-248.131293)">
                    <path d="M592.213,487.595L535.983,487.595L538.372,492.557C560.423,494.027 558.401,516.629 549.765,552.278L523.12,663.269L486.735,510.749C483.795,498.253 490.043,493.292 504.376,492.557L506.581,487.595L440.612,487.595L442.817,492.557C452.189,493.292 460.274,498.253 463.398,510.749L470.013,537.578L439.326,663.269L403.125,510.749C400.001,498.253 406.433,493.292 420.582,492.557L422.787,487.595L356.818,487.595L359.023,492.557C368.395,493.292 376.48,498.253 379.604,510.749L424.809,692.486L442.45,688.443L474.791,556.137L508.603,692.486L526.243,688.443L569.611,510.749C572.551,498.253 580.82,493.292 590.008,492.557L592.213,487.595Z" style="fill-rule:nonzero;"/>
                    <path d="M579.993,692.486C588.63,692.486 595.061,685.871 595.061,677.05C595.061,668.598 588.63,662.35 579.993,662.35C571.173,662.35 564.741,668.598 564.741,677.05C564.741,685.871 571.356,692.486 579.993,692.486Z" style="fill-rule:nonzero;"/>
                    <path d="M703.663,689.73C743.355,689.73 770,669.149 770,634.602C770,600.791 742.62,586.09 718.18,582.782C741.517,578.372 760.077,558.342 760.077,535.74C760.077,501.928 735.453,486.493 699.253,486.493C687.308,486.493 675.915,487.411 659.928,487.595L632.548,487.595L634.753,492.557C647.433,493.292 655.15,498.621 655.15,511.484L655.15,665.841C655.15,678.704 647.433,684.033 634.753,684.585L632.548,689.73L703.663,689.73ZM677.201,496.416C681.612,495.129 684.736,495.129 693.372,495.129C719.282,495.129 737.842,506.89 737.842,536.659C737.842,559.996 725.346,579.842 690.248,579.842L677.201,579.842L677.201,496.416ZM697.047,681.093C683.633,681.093 677.201,678.337 677.201,670.435L677.201,587.56L690.248,587.56C725.714,587.56 746.846,603.179 746.846,634.602C746.846,662.901 729.389,681.093 697.047,681.093Z" style="fill-rule:nonzero;"/>
                    <path d="M837.99,543.642C824.209,543.642 811.529,556.688 804.914,575.248L804.914,543.642L799.401,543.642C795.175,553.932 785.619,558.342 767.243,558.342L769.816,563.304C781.393,564.59 784.7,568.449 784.7,576.902L784.7,671.354C784.7,680.174 779.004,684.033 769.632,684.585L767.427,689.73L826.965,689.73L824.76,684.585C812.448,684.033 804.914,680.174 804.914,671.354L804.914,608.141C804.914,580.577 820.166,555.77 832.845,555.77C839.461,555.77 843.136,561.099 843.136,568.633C843.136,579.107 837.623,585.722 829.721,587.192C831.926,589.949 836.888,591.603 842.033,591.603C853.426,591.603 861.695,579.842 861.695,566.979C861.695,552.462 852.324,543.642 837.99,543.642Z" style="fill-rule:nonzero;"/>
                    <path d="M943.1,636.991C939.609,662.534 927.113,678.704 912.413,678.704C896.426,678.704 884.481,664.004 880.439,635.888C879.704,626.884 881.541,623.209 888.708,620.269L939.977,599.688C945.306,597.667 948.062,596.013 948.062,590.684C948.062,561.834 932.626,543.642 910.024,543.642C876.947,543.642 857.836,574.697 857.836,619.534C857.836,665.657 878.601,692.486 904.511,692.486C928.951,692.486 944.203,671.721 948.797,636.991L943.1,636.991ZM908.921,551.543C921.417,551.543 927.297,566.611 927.297,581.128C927.297,593.256 920.314,598.218 878.969,616.226L878.969,613.102C878.969,575.064 888.34,551.543 908.921,551.543Z" style="fill-rule:nonzero;"/>
                    <path d="M1067.873,684.585C1058.501,684.033 1052.805,680.174 1052.805,671.354L1052.805,578.188C1052.805,556.505 1041.779,543.642 1023.771,543.642C1008.519,543.642 993.634,555.218 984.998,571.94L984.998,543.642L979.485,543.642C975.258,553.932 965.703,558.342 947.327,558.342L949.9,563.304C961.476,564.59 964.784,568.449 964.784,576.902L964.784,671.354C964.784,680.174 959.088,684.033 949.716,684.585L947.511,689.73L1002.271,689.73L1000.066,684.585C990.694,684.033 984.998,680.174 984.998,671.354L984.998,597.667C984.998,576.718 999.698,558.159 1015.869,558.159C1027.63,558.159 1032.591,565.876 1032.591,583.334L1032.591,671.354C1032.591,680.174 1026.895,684.033 1017.523,684.585L1015.318,689.73L1070.078,689.73L1067.873,684.585Z" style="fill-rule:nonzero;"/>
                    <path d="M1184.743,684.585C1175.372,684.033 1169.675,680.174 1169.675,671.354L1169.675,578.188C1169.675,556.505 1158.65,543.642 1140.641,543.642C1125.389,543.642 1110.505,555.218 1101.868,571.94L1101.868,543.642L1096.355,543.642C1092.129,553.932 1082.574,558.342 1064.198,558.342L1066.77,563.304C1078.347,564.59 1081.655,568.449 1081.655,576.902L1081.655,671.354C1081.655,680.174 1075.958,684.033 1066.587,684.585L1064.381,689.73L1119.141,689.73L1116.936,684.585C1107.565,684.033 1101.868,680.174 1101.868,671.354L1101.868,597.667C1101.868,576.718 1116.569,558.159 1132.74,558.159C1144.5,558.159 1149.462,565.876 1149.462,583.334L1149.462,671.354C1149.462,680.174 1143.765,684.033 1134.393,684.585L1132.188,689.73L1186.948,689.73L1184.743,684.585Z" style="fill-rule:nonzero;"/>
                    <path d="M1289.486,684.585C1280.114,684.033 1274.418,680.174 1274.418,671.354L1274.418,585.722C1274.418,555.77 1259.717,543.642 1236.012,543.642C1215.615,543.642 1195.401,559.261 1195.401,578.188C1195.401,589.214 1202.384,596.013 1212.675,596.013C1218.371,596.013 1223.517,592.705 1226.457,588.663C1218.371,587.192 1213.961,580.393 1213.961,572.859C1213.961,560.915 1223.149,551.543 1235.828,551.543C1245.016,551.543 1250.897,557.975 1250.897,566.795C1250.897,585.906 1238.768,599.137 1218.739,613.837C1198.158,628.722 1185.662,640.482 1185.662,659.41C1185.662,679.623 1198.342,692.486 1215.982,692.486C1231.602,692.486 1247.405,678.888 1254.388,656.837L1254.388,667.495C1254.388,677.418 1254.388,682.747 1255.123,689.73L1291.691,689.73L1289.486,684.585ZM1222.965,679.072C1213.777,679.072 1206.794,671.17 1206.794,656.837C1206.794,642.871 1213.594,633.132 1229.397,618.615C1241.525,607.59 1249.978,596.932 1254.388,584.252L1254.388,621.372C1254.388,654.448 1239.32,679.072 1222.965,679.072Z" style="fill-rule:nonzero;"/>
                    <path d="M1406.357,684.585C1396.985,684.033 1391.288,680.174 1391.288,671.354L1391.288,578.188C1391.288,556.505 1380.263,543.642 1362.254,543.642C1347.002,543.642 1332.118,555.218 1323.481,571.94L1323.481,543.642L1317.969,543.642C1313.742,553.932 1304.187,558.342 1285.811,558.342L1288.383,563.304C1299.96,564.59 1303.268,568.449 1303.268,576.902L1303.268,671.354C1303.268,680.174 1297.571,684.033 1288.2,684.585L1285.995,689.73L1340.755,689.73L1338.55,684.585C1329.178,684.033 1323.481,680.174 1323.481,671.354L1323.481,597.667C1323.481,576.718 1338.182,558.159 1354.353,558.159C1366.113,558.159 1371.075,565.876 1371.075,583.334L1371.075,671.354C1371.075,680.174 1365.378,684.033 1356.007,684.585L1353.802,689.73L1408.562,689.73L1406.357,684.585Z" style="fill-rule:nonzero;"/>
                </g>
            </g>
        </g>
    </g>
</svg>
