<svg width="35" height="26" viewBox="0 0 35 26" fill="none" xmlns="http://www.w3.org/2000/svg">
<g clip-path="url(#clip0_2_7)">
<path d="M35 4.33345C35 6.72657 33.0652 8.6669 30.6789 8.6669C29.2656 8.6669 28.0105 7.98666 27.2223 6.93436C26.6798 6.2099 26.3578 5.30993 26.3578 4.33415C26.3578 1.94103 28.2926 0.000701904 30.6789 0.000701904C33.0652 0.000701904 35 1.94103 35 4.33415V4.33345Z" fill="#EDEDE1"/>
<path d="M8.6422 0L17.7401 18.2485C19.516 21.8098 16.9337 26 12.9626 26L0 0H8.6422Z" fill="#EDEDE1"/>
<path d="M20.741 0L29.8389 18.2485C31.6148 21.8098 29.0325 26 25.0614 26L12.0988 0H20.741Z" fill="#EDEDE1"/>
</g>
<defs>
<clipPath id="clip0_2_7">
<rect width="35" height="26" fill="white"/>
</clipPath>
</defs>
</svg>
